<svg xmlns="http://www.w3.org/2000/svg" viewBox="0 0 96 96" role="img" aria-label="Statscore">
  <defs>
    <linearGradient id="g" x1="16" y1="12" x2="80" y2="84" gradientUnits="userSpaceOnUse">
      <stop offset="0%" stop-color="#00f5a0" />
      <stop offset="100%" stop-color="#00d9f5" />
    </linearGradient>
    <filter id="shadow" x="-20%" y="-20%" width="140%" height="140%" color-interpolation-filters="sRGB">
      <feDropShadow dx="0" dy="3" stdDeviation="4" flood-color="#0a0d14" flood-opacity="0.35" />
    </filter>
  </defs>
  <rect x="10" y="10" width="76" height="76" rx="18" fill="url(#g)" filter="url(#shadow)" />
  <path fill="#0c1624" d="M48 19c-5.7 0-10.3 4.6-10.3 10.3v16.4L27.5 38c-1.8-1.8-4.7-1.8-6.5 0-1.8 1.8-1.8 4.7 0 6.5l17.6 17.6c3.4 3.4 7.8 5.2 12.4 5.2 9.7 0 17.6-7.9 17.6-17.6V29.3C68.6 23.6 64 19 58.3 19H48z" />
  <path fill="#fff" d="M57.6 30.2c0-2-1.6-3.6-3.6-3.6h-5.4c-2 0-3.6 1.6-3.6 3.6v23c0 2 1.6 3.6 3.6 3.6h5.4c2 0 3.6-1.6 3.6-3.6v-23zm-16.4 8c0-2-1.6-3.6-3.6-3.6h-1.8c-2 0-3.6 1.6-3.6 3.6v11.2c0 2 1.6 3.6 3.6 3.6h1.8c2 0 3.6-1.6 3.6-3.6V38.2z" />
</svg>
